<svg xmlns="http://www.w3.org/2000/svg" viewBox="0 0 64 64" width="256" height="256" fill="none">
  <rect width="64" height="64" rx="8" fill="#F6FEF6"/>
  <g transform="translate(8 8)" fill="#1F7A3A">
    <path d="M20 8c3-6 10-6 13-3s2 9-1 12c-3 3-6 2-9 1s-6-4-3-10z"/>
    <ellipse cx="18" cy="30" rx="14" ry="10" fill="#1F7A3A"/>
    <path d="M6 20c-2 0-4 2-4 4v6c0 2 2 4 4 4h24c2 0 4-2 4-4v-6c0-2-2-4-4-4H6z" fill="#fff" opacity="0.06"/>
    <circle cx="14" cy="28" r="2.5" fill="#fff"/>
    <circle cx="22" cy="28" r="2.5" fill="#fff"/>
    <path d="M16 34c2 2 6 2 8 0" stroke="#fff" stroke-width="1.5" stroke-linecap="round" stroke-linejoin="round"/>
  </g>
</svg>
